<svg xmlns="http://www.w3.org/2000/svg" width="162" height="41" viewBox="0 0 162 41">
  <g id="Group_12021" data-name="Group 12021" transform="translate(-0.351 -0.304)">
    <rect id="Rectangle_1621" data-name="Rectangle 1621" width="162" height="41" rx="20.5" transform="translate(0.351 0.304)" fill="#0b0b0b"/>
    <g id="Group_11991" data-name="Group 11991" transform="translate(24.19 6.282)">
      <path id="Path_10096" data-name="Path 10096" d="M69.269,39.016a6.042,6.042,0,0,1,2.879-5.07,6.191,6.191,0,0,0-4.875-2.635c-2.051-.216-4.04,1.227-5.085,1.227-1.065,0-2.674-1.206-4.408-1.17A6.491,6.491,0,0,0,52.317,34.7c-2.362,4.089-.6,10.1,1.663,13.4,1.132,1.62,2.455,3.426,4.187,3.362,1.694-.069,2.327-1.079,4.371-1.079,2.026,0,2.62,1.079,4.386,1.038,1.818-.028,2.963-1.626,4.056-3.259a13.36,13.36,0,0,0,1.855-3.776A5.846,5.846,0,0,1,69.269,39.016Zm-3.336-9.879a5.946,5.946,0,0,0,1.362-4.262A6.06,6.06,0,0,0,63.377,26.9a5.659,5.659,0,0,0-1.4,4.1,5.006,5.006,0,0,0,3.953-1.869Z" transform="translate(-51.195 -24.875)" fill="#fff"/>
      <path id="Path_10098" data-name="Path 10098" d="M181.525,52.225h-2.368l-1.3-4.074h-4.508l-1.235,4.074h-2.305l4.467-13.871h2.759Zm-4.056-5.784L176.3,42.82q-.186-.555-.7-2.613h-.042q-.206.885-.659,2.613l-1.153,3.622Zm15.522.66a5.663,5.663,0,0,1-1.387,4.033,4.066,4.066,0,0,1-3.084,1.317,3.087,3.087,0,0,1-2.857-1.419v5.248h-2.223V45.511q0-1.6-.082-3.287h1.955l.124,1.585h.042a3.955,3.955,0,0,1,6.329-.393,5.53,5.53,0,0,1,1.182,3.686Zm-2.264.081a4.122,4.122,0,0,0-.659-2.409,2.277,2.277,0,0,0-1.935-.987,2.312,2.312,0,0,0-1.492.545,2.528,2.528,0,0,0-.875,1.431,2.9,2.9,0,0,0-.1.676v1.669a2.675,2.675,0,0,0,.669,1.843,2.222,2.222,0,0,0,1.739.751,2.278,2.278,0,0,0,1.955-.967A4.256,4.256,0,0,0,190.727,47.183ZM204.5,47.1a5.663,5.663,0,0,1-1.387,4.033,4.068,4.068,0,0,1-3.085,1.317,3.087,3.087,0,0,1-2.857-1.419v5.248h-2.223V45.511q0-1.6-.082-3.287h1.955l.124,1.585h.042a3.956,3.956,0,0,1,6.33-.393A5.535,5.535,0,0,1,204.5,47.1Zm-2.265.081a4.123,4.123,0,0,0-.66-2.409,2.274,2.274,0,0,0-1.933-.987,2.321,2.321,0,0,0-1.494.545,2.527,2.527,0,0,0-.874,1.431,2.968,2.968,0,0,0-.1.676v1.669a2.684,2.684,0,0,0,.668,1.843,2.227,2.227,0,0,0,1.741.751,2.276,2.276,0,0,0,1.955-.967A4.256,4.256,0,0,0,202.232,47.183Zm15.131,1.152a3.7,3.7,0,0,1-1.233,2.882,5.468,5.468,0,0,1-3.779,1.214,6.6,6.6,0,0,1-3.593-.864l.514-1.852a6.185,6.185,0,0,0,3.211.865,3.03,3.03,0,0,0,1.955-.566,1.849,1.849,0,0,0,.7-1.511,1.937,1.937,0,0,0-.578-1.421,5.355,5.355,0,0,0-1.914-1.069Q209,44.654,209,42.039a3.508,3.508,0,0,1,1.287-2.8,5.088,5.088,0,0,1,3.407-1.091,6.734,6.734,0,0,1,3.15.659l-.558,1.811a5.508,5.508,0,0,0-2.666-.638,2.711,2.711,0,0,0-1.839.576,1.649,1.649,0,0,0-.558,1.257,1.7,1.7,0,0,0,.639,1.358,7.2,7.2,0,0,0,2.016,1.069,6.836,6.836,0,0,1,2.635,1.686,3.514,3.514,0,0,1,.848,2.406Zm7.368-4.443h-2.45v4.856q0,1.853,1.3,1.851a3.905,3.905,0,0,0,.987-.1l.062,1.687a5.037,5.037,0,0,1-1.729.246,2.665,2.665,0,0,1-2.059-.8,3.94,3.94,0,0,1-.741-2.7V43.887h-1.46V42.219h1.46V40.388l2.183-.659v2.49h2.45Zm11.032,3.251a5.486,5.486,0,0,1-1.318,3.787,4.7,4.7,0,0,1-3.664,1.523,4.479,4.479,0,0,1-3.51-1.459,5.319,5.319,0,0,1-1.307-3.683,5.441,5.441,0,0,1,1.348-3.806,4.673,4.673,0,0,1,3.634-1.482,4.572,4.572,0,0,1,3.539,1.461,5.25,5.25,0,0,1,1.277,3.661Zm-2.3.051a4.478,4.478,0,0,0-.6-2.36,2.2,2.2,0,0,0-2-1.191,2.232,2.232,0,0,0-2.038,1.191,4.552,4.552,0,0,0-.6,2.4,4.464,4.464,0,0,0,.6,2.361,2.28,2.28,0,0,0,4.017-.02A4.5,4.5,0,0,0,233.459,47.193Zm9.532-3.015a3.869,3.869,0,0,0-.7-.062,2.1,2.1,0,0,0-1.812.886,3.336,3.336,0,0,0-.555,1.975v5.248H237.7V45.373q0-1.575-.065-3.149h1.936l.081,1.914h.062a3.431,3.431,0,0,1,1.111-1.585,2.688,2.688,0,0,1,1.607-.536,3.569,3.569,0,0,1,.556.041Zm9.941,2.573a5.209,5.209,0,0,1-.081,1.008h-6.668a2.9,2.9,0,0,0,.968,2.266,3.309,3.309,0,0,0,2.181.7,7.377,7.377,0,0,0,2.7-.472l.348,1.542a8.344,8.344,0,0,1-3.354.618,4.863,4.863,0,0,1-3.655-1.367,5.055,5.055,0,0,1-1.327-3.673,5.728,5.728,0,0,1,1.236-3.765,4.26,4.26,0,0,1,3.5-1.6,3.729,3.729,0,0,1,3.275,1.6A5.4,5.4,0,0,1,252.932,46.751Zm-2.12-.576a3.008,3.008,0,0,0-.432-1.708,1.941,1.941,0,0,0-1.77-.928,2.107,2.107,0,0,0-1.769.906,3.319,3.319,0,0,0-.658,1.728l4.629,0Zm-78.1-12.724a14.2,14.2,0,0,1-1.6-.081V26.663a12.1,12.1,0,0,1,1.882-.142c2.549,0,3.723,1.254,3.723,3.3C176.718,32.177,175.331,33.451,172.711,33.451Zm.373-6.069a4.461,4.461,0,0,0-.88.071v5.1a5.769,5.769,0,0,0,.738.03,2.415,2.415,0,0,0,2.621-2.731A2.224,2.224,0,0,0,173.084,27.381Zm7.292,6.12a2.34,2.34,0,0,1-2.368-2.529,2.394,2.394,0,0,1,2.449-2.6,2.321,2.321,0,0,1,2.368,2.519A2.409,2.409,0,0,1,180.376,33.5Zm.042-4.33c-.789,0-1.295.738-1.295,1.77,0,1.012.516,1.75,1.284,1.75s1.284-.789,1.284-1.771C181.692,29.92,181.186,29.172,180.418,29.172Zm10.6-.7L189.48,33.39h-1l-.637-2.135a16.185,16.185,0,0,1-.4-1.587h-.021a10.641,10.641,0,0,1-.394,1.587l-.678,2.135h-1.012l-1.447-4.915h1.123l.557,2.337q.2.835.334,1.578h.021c.08-.414.212-.931.4-1.568l.7-2.346h.89l.668,2.3c.162.557.293,1.1.4,1.619h.029a14.144,14.144,0,0,1,.334-1.619l.6-2.3h1.073Zm5.661,4.915h-1.093V30.568c0-.869-.334-1.3-.991-1.3a1.135,1.135,0,0,0-1.093,1.2V33.39h-1.093V29.88c0-.435-.01-.9-.041-1.406h.961l.051.759h.03a1.766,1.766,0,0,1,1.559-.859c1.032,0,1.71.789,1.71,2.073V33.39Zm3.013,0H198.6V26.219h1.094Zm3.984.112a2.34,2.34,0,0,1-2.368-2.529,2.394,2.394,0,0,1,2.448-2.6,2.321,2.321,0,0,1,2.368,2.519A2.408,2.408,0,0,1,203.675,33.5Zm.041-4.33c-.789,0-1.295.738-1.295,1.77,0,1.012.517,1.75,1.283,1.75s1.284-.789,1.284-1.771C204.99,29.92,204.485,29.172,203.716,29.172Zm6.715,4.218-.079-.566h-.029a1.679,1.679,0,0,1-1.438.677,1.429,1.429,0,0,1-1.506-1.447c0-1.213,1.052-1.841,2.873-1.841v-.091c0-.647-.343-.971-1.021-.971a2.3,2.3,0,0,0-1.284.365l-.222-.718a3.143,3.143,0,0,1,1.688-.425c1.284,0,1.933.677,1.933,2.034v1.81a7.423,7.423,0,0,0,.071,1.174h-.985Zm-.15-2.448c-1.214,0-1.822.294-1.822.991a.7.7,0,0,0,.75.768,1.046,1.046,0,0,0,1.073-1Zm6.37,2.448L216.6,32.6h-.03a1.648,1.648,0,0,1-1.578.9,2.24,2.24,0,0,1-2.063-2.509c0-1.537.91-2.62,2.153-2.62a1.477,1.477,0,0,1,1.387.668h.022V26.219h1.094v5.846c0,.475.011.92.041,1.325h-.973Zm-.162-2.892a1.189,1.189,0,0,0-1.151-1.275c-.81,0-1.305.718-1.305,1.729,0,.991.514,1.67,1.283,1.67a1.227,1.227,0,0,0,1.173-1.3Zm8.028,3a2.34,2.34,0,0,1-2.367-2.529,2.394,2.394,0,0,1,2.448-2.6,2.321,2.321,0,0,1,2.368,2.519,2.407,2.407,0,0,1-2.449,2.609Zm.041-4.33c-.788,0-1.294.738-1.294,1.77,0,1.012.516,1.75,1.283,1.75s1.284-.789,1.284-1.771C225.834,29.92,225.328,29.172,224.558,29.172Zm8.284,4.218h-1.094V30.568c0-.869-.334-1.3-.991-1.3a1.134,1.134,0,0,0-1.092,1.2V33.39h-1.094V29.88c0-.435-.01-.9-.041-1.406h.961l.051.759h.03a1.765,1.765,0,0,1,1.558-.86c1.032,0,1.711.789,1.711,2.073Zm7.351-4.1h-1.2v2.387c0,.608.211.911.636.911a2.152,2.152,0,0,0,.485-.051l.03.83a2.421,2.421,0,0,1-.848.122c-.861,0-1.376-.475-1.376-1.72V29.294H237.2v-.819h.717v-.9l1.073-.324v1.224h1.2Zm5.784,4.1h-1.092v-2.8c0-.88-.333-1.325-.991-1.325a1.071,1.071,0,0,0-1.094,1.163V33.39h-1.092V26.219H242.8v2.953h.022a1.658,1.658,0,0,1,1.478-.8c1.04,0,1.676.809,1.676,2.094Zm5.926-2.2h-3.279a1.411,1.411,0,0,0,1.549,1.456,3.693,3.693,0,0,0,1.325-.232l.17.759a4.105,4.105,0,0,1-1.649.3A2.282,2.282,0,0,1,247.571,31a2.4,2.4,0,0,1,2.325-2.64,2.065,2.065,0,0,1,2.044,2.337A2.1,2.1,0,0,1,251.9,31.2Zm-1-.779c0-.759-.383-1.295-1.081-1.295a1.3,1.3,0,0,0-1.195,1.295Z" transform="translate(-138.912 -25.869)" fill="#fff"/>
    </g>
  </g>
</svg>
