<svg xmlns="http://www.w3.org/2000/svg" width="33.025" height="30.824" viewBox="0 0 33.025 30.824">
  <path id="bank" d="M16.513,0,33.026,6.605v2.2h-2.2a1.024,1.024,0,0,1-.352.774,1.18,1.18,0,0,1-.834.327H3.389a1.186,1.186,0,0,1-.834-.327A1.025,1.025,0,0,1,2.2,8.807H0v-2.2ZM4.4,11.009h4.4v13.21h2.2V11.009h4.4v13.21h2.2V11.009h4.4v13.21h2.2V11.009h4.4v13.21h1.015a1.186,1.186,0,0,1,.834.327,1.022,1.022,0,0,1,.352.774v1.1H2.2v-1.1a1.024,1.024,0,0,1,.352-.774,1.18,1.18,0,0,1,.834-.327H4.4V11.009ZM31.838,27.521a1.186,1.186,0,0,1,.834.327,1.022,1.022,0,0,1,.352.774v2.2H0v-2.2a1.024,1.024,0,0,1,.352-.774,1.18,1.18,0,0,1,.834-.327H31.838Z" fill="#0b0b0b"/>
</svg>
