<svg xmlns="http://www.w3.org/2000/svg" width="25.876" height="25.92" viewBox="0 0 25.876 25.92">
  <g id="bxl-instagram-alt" transform="translate(-0.001)">
    <path id="Path_12450" data-name="Path 12450" d="M30.288,12.121a9.383,9.383,0,0,0-.6-3.184A6.624,6.624,0,0,0,25.9,5.153a9.492,9.492,0,0,0-3.141-.6c-1.382-.062-1.82-.08-5.33-.08s-3.959,0-5.331.08a9.492,9.492,0,0,0-3.139.6A6.621,6.621,0,0,0,5.177,8.937a9.418,9.418,0,0,0-.6,3.139c-.062,1.383-.08,1.822-.08,5.331s0,3.957.08,5.331a9.472,9.472,0,0,0,.6,3.142,6.624,6.624,0,0,0,3.785,3.782,9.461,9.461,0,0,0,3.139.647c1.383.062,1.822.08,5.331.08s3.959,0,5.331-.08a9.469,9.469,0,0,0,3.141-.6,6.632,6.632,0,0,0,3.784-3.784,9.438,9.438,0,0,0,.6-3.142c.062-1.382.08-1.82.08-5.331s0-3.955-.083-5.33ZM17.424,24.044A6.643,6.643,0,1,1,24.067,17.4a6.641,6.641,0,0,1-6.643,6.642Zm6.908-11.983a1.549,1.549,0,1,1,1.547-1.549A1.547,1.547,0,0,1,24.332,12.061Z" transform="translate(-4.494 -4.47)"/>
    <path id="Path_12451" data-name="Path 12451" d="M22.116,17.779A4.315,4.315,0,1,1,17.8,13.463a4.316,4.316,0,0,1,4.315,4.316Z" transform="translate(-4.872 -4.848)"/>
  </g>
</svg>
