<svg id="gold-money-forex" xmlns="http://www.w3.org/2000/svg" width="30.826" height="30.823" viewBox="0 0 30.826 30.823">
  <path id="Path_10071" data-name="Path 10071" d="M3,58.11H17.384L14.3,54H6.082Z" transform="translate(-2.486 -27.286)" fill="#0b0b0b"/>
  <path id="Path_10072" data-name="Path 10072" d="M44.3,54h-8.22L33,58.11H47.384Z" transform="translate(-17.074 -27.286)" fill="#0b0b0b"/>
  <path id="Path_10073" data-name="Path 10073" d="M32.384,48.11,29.3,44h-8.22L18,48.11Z" transform="translate(-9.78 -22.423)" fill="#0b0b0b"/>
  <path id="Path_10074" data-name="Path 10074" d="M5.263,24.09a6.539,6.539,0,0,1,1.214-6.781L7.5,18.343l.66-5.554-5.531.66,1.061,1.066a6.239,6.239,0,0,0-.1,8.449A5.356,5.356,0,0,0,5.263,24.09Zm25.96-11.2a5.356,5.356,0,0,0-1.662-1.127,6.539,6.539,0,0,1-1.214,6.781l-1.027-1.034-.66,5.554,5.531-.66-1.061-1.066A6.239,6.239,0,0,0,31.222,12.888Zm-13.811-.613a5.137,5.137,0,1,0-5.137-5.137,5.137,5.137,0,0,0,5.137,5.137ZM15.87,8.165H16.9v.063a.452.452,0,0,0,.451.451h.125a.452.452,0,0,0,.451-.451V8.1a.452.452,0,0,0-.451-.451h-.125A1.48,1.48,0,0,1,15.87,6.172V6.047a1.475,1.475,0,0,1,1.027-1.4V4.055h1.027v.592a1.475,1.475,0,0,1,1.027,1.4V6.11H17.925V6.047a.452.452,0,0,0-.451-.451h-.125a.452.452,0,0,0-.451.451v.125a.452.452,0,0,0,.451.451h.125A1.48,1.48,0,0,1,18.952,8.1v.125a1.475,1.475,0,0,1-1.027,1.4v.592H16.9V9.628a1.475,1.475,0,0,1-1.027-1.4Z" transform="translate(-1.999 -2)" fill="#0b0b0b"/>
</svg>
