<svg xmlns="http://www.w3.org/2000/svg" width="20.287" height="30.824" viewBox="0 0 20.287 30.824">
  <g id="Group_13180" data-name="Group 13180" transform="translate(21079.387 14364.665)">
    <path id="money_1_" data-name="money(1)" d="M18.383,12.9a5.488,5.488,0,1,0,5.488,5.488A5.495,5.495,0,0,0,18.383,12.9Zm1.724,7.165a1.628,1.628,0,0,1-.668.558,2.09,2.09,0,0,1-.654.172v.738a.2.2,0,0,1-.2.2h-.609a.2.2,0,0,1-.2-.2v-.8a1.917,1.917,0,0,1-.341-.119,1.515,1.515,0,0,1-.722-.6,1.666,1.666,0,0,1-.28-.9.2.2,0,0,1,.19-.211l.547-.037a.2.2,0,0,1,.216.179.935.935,0,0,0,.149.438.734.734,0,0,0,.36.28,1.55,1.55,0,0,0,1.1.036.722.722,0,0,0,.3-.209.436.436,0,0,0,.082-.26.352.352,0,0,0-.082-.235.707.707,0,0,0-.313-.2c-.1-.033-.36-.107-.755-.2a4.131,4.131,0,0,1-.895-.292,1.384,1.384,0,0,1-.548-.482,1.223,1.223,0,0,1-.18-.654,1.381,1.381,0,0,1,.217-.742,1.416,1.416,0,0,1,.64-.515,1.681,1.681,0,0,1,.311-.1v-.678a.2.2,0,0,1,.2-.2h.609a.2.2,0,0,1,.2.2v.642a2.461,2.461,0,0,1,.506.138,1.481,1.481,0,0,1,.667.551,1.524,1.524,0,0,1,.257.8.2.2,0,0,1-.19.213l-.56.038a.2.2,0,0,1-.215-.176.711.711,0,0,0-.235-.49.962.962,0,0,0-.645-.18,1.1,1.1,0,0,0-.647.157.368.368,0,0,0-.157.311.3.3,0,0,0,.093.234,2.155,2.155,0,0,0,.789.264,7.071,7.071,0,0,1,1.02.3,1.4,1.4,0,0,1,.654.529,1.274,1.274,0,0,1,.215.726A1.415,1.415,0,0,1,20.108,20.06Z" transform="translate(-21086.744 -14377.56)" fill="#0b0b0b"/>
    <g id="Growing_Tree" data-name="Growing Tree" transform="translate(-21079.387 -14354.129)">
      <path id="Path_10075" data-name="Path 10075" d="M12.848,28.294a5.575,5.575,0,0,1,.882-.172C12.919,28.228,12.848,28.342,12.848,28.294Zm14.03-1.222c0,.741.106.441-5.592,6.139a3.528,3.528,0,0,1-2.492,1.032H11v-4.2a.441.441,0,0,0,.251-.079c1.879-1.323,3.5-1.014,8.283-1.014a.882.882,0,0,1,.882.851c.088.181-.172.847-.789.909H15.679a.441.441,0,0,0,0,.882h3.859a1.764,1.764,0,0,0,1.694-2.263c3.652-3.44,3.581-3.528,4.256-3.572a1.323,1.323,0,0,1,1.389,1.314Z" transform="translate(-6.59 -14.838)" fill="#0b0b0b"/>
      <path id="Path_10076" data-name="Path 10076" d="M16.092,26.019c-.82.106-.882.221-.882.172A5.892,5.892,0,0,1,16.092,26.019ZM27.171,22.9c-.6.216-.728.419-2.205,1.808a3.184,3.184,0,0,0-.441-.441C25.407,23.395,26.113,22.371,27.171,22.9ZM25.7,22.076c-.573.243-.8.56-1.9,1.658-.71-.384-.882,0,.441-1.323A1.376,1.376,0,0,1,25.7,22.076Z" transform="translate(-8.943 -12.735)" fill="#0b0b0b"/>
      <rect id="Rectangle_1562" data-name="Rectangle 1562" width="4.624" height="7.706" transform="translate(0 12.582)" fill="#0b0b0b"/>
      <path id="Path_10077" data-name="Path 10077" d="M25,10.262V1.441a.441.441,0,1,1,.882,0v8.821a.441.441,0,1,1-.882,0Z" transform="translate(-14.415 -1)" fill="#0b0b0b"/>
      <path id="Path_10078" data-name="Path 10078" d="M24.325,13.579l-1.217,1.147a1.764,1.764,0,0,0-.939-.468c-.212-.04-5.412-.062-6.086.026-.82.106-.882.221-.882.172A2.646,2.646,0,0,1,17.357,12.5a2.646,2.646,0,0,1,5.222,0A2.646,2.646,0,0,1,24.325,13.579ZM26.579,1v.882A3.528,3.528,0,0,1,23.051,5.41h-.97l2.095-1.4a.441.441,0,0,0-.485-.732l-2.4,1.6V4.528A3.528,3.528,0,0,1,24.815,1Z" transform="translate(-8.937 -1)" fill="#0b0b0b"/>
      <path id="Path_10079" data-name="Path 10079" d="M19.733,7.087C17.677,8.459,17.792,8.41,17.616,8.41a.441.441,0,0,1-.243-.807l1.566-1.045v.529ZM13.4,7.012l2.1,1.4h-.975A3.528,3.528,0,0,1,11,4.882V4h1.764a3.528,3.528,0,0,1,3.528,3.528v.353l-2.4-1.6a.441.441,0,0,0-.485.732Z" transform="translate(-6.59 -2.677)" fill="#0b0b0b"/>
      <path id="Path_10080" data-name="Path 10080" d="M23.08,14.577l-1.87-1.248H22V12.8l1.566,1.045a.441.441,0,0,1-.485.732Z" transform="translate(-12.297 -7.596)" fill="#0b0b0b"/>
    </g>
  </g>
</svg>
