<svg xmlns="http://www.w3.org/2000/svg" xmlns:xlink="http://www.w3.org/1999/xlink" width="162" height="41" viewBox="0 0 162 41">
  <defs>
    <clipPath id="clip-path">
      <path id="Path_10083" data-name="Path 10083" d="M480.48,417.929l-5.49-3.169L464.4,408.646c-.588-.339-1.174-.134-1.174.576v24.909c0,.532.419.761.929.466l10.833-6.255,5.489-3.169,5.277-3.046c.619-.358.56-.848.037-1.129S480.48,417.929,480.48,417.929Z" transform="translate(-463.228 -408.486)"/>
    </clipPath>
    <linearGradient id="linear-gradient" x1="1.441" y1="1.519" x2="1.441" y2="1.436" gradientUnits="objectBoundingBox">
      <stop offset="0" stop-color="#257cb0"/>
      <stop offset="0.286" stop-color="#4a93b5"/>
      <stop offset="0.767" stop-color="#78bcbb"/>
      <stop offset="1" stop-color="#89cfbd"/>
    </linearGradient>
    <linearGradient id="linear-gradient-2" x1="1.103" y1="2.982" x2="1.187" y2="2.982" gradientUnits="objectBoundingBox">
      <stop offset="0" stop-color="#52c1ad"/>
      <stop offset="1" stop-color="#dee89a"/>
    </linearGradient>
    <linearGradient id="linear-gradient-3" x1="1.145" y1="1.94" x2="1.145" y2="1.857" gradientUnits="objectBoundingBox">
      <stop offset="0" stop-color="#ec413d"/>
      <stop offset="0.167" stop-color="#da4452"/>
      <stop offset="0.575" stop-color="#b0487a"/>
      <stop offset="0.862" stop-color="#954a92"/>
      <stop offset="1" stop-color="#8a4a9d"/>
    </linearGradient>
    <linearGradient id="linear-gradient-4" x1="0.704" y1="4.18" x2="0.704" y2="4.097" gradientUnits="objectBoundingBox">
      <stop offset="0" stop-color="#f58879"/>
      <stop offset="0.119" stop-color="#f69079"/>
      <stop offset="0.713" stop-color="#fcb877"/>
      <stop offset="1" stop-color="#fec874"/>
    </linearGradient>
  </defs>
  <g id="Group_12020" data-name="Group 12020" transform="translate(0.3 -0.304)">
    <rect id="Rectangle_1620" data-name="Rectangle 1620" width="162" height="41" rx="20.5" transform="translate(-0.3 0.304)" fill="#0b0b0b"/>
    <g id="Group_11990" data-name="Group 11990" transform="translate(25.877 8.816)">
      <g id="Group_11898" data-name="Group 11898" clip-path="url(#clip-path)">
        <path id="Path_10082" data-name="Path 10082" d="M463.24,387.346v26.969l13.6-13.484Z" transform="translate(-463.24 -387.765)" fill="url(#linear-gradient)"/>
      </g>
      <g id="Group_11899" data-name="Group 11899" clip-path="url(#clip-path)">
        <path id="Path_10084" data-name="Path 10084" d="M480.492,392.362,475,389.193,463.24,382.4v.1l13.6,13.484Z" transform="translate(-463.24 -382.919)" fill="url(#linear-gradient-2)"/>
      </g>
      <g id="Group_11900" data-name="Group 11900" clip-path="url(#clip-path)">
        <path id="Path_10086" data-name="Path 10086" d="M463.24,1080.654v.1L475,1073.961l5.489-3.169-3.652-3.621Z" transform="translate(-463.24 -1054.105)" fill="url(#linear-gradient-3)"/>
      </g>
      <g id="Group_11901" data-name="Group 11901" clip-path="url(#clip-path)">
        <path id="Path_10088" data-name="Path 10088" d="M1152.5,884.566l-3.653,3.622,3.652,3.622,6.274-3.622Z" transform="translate(-1135.249 -875.123)" fill="url(#linear-gradient-4)"/>
      </g>
    </g>
    <g id="Group_11989" data-name="Group 11989" transform="translate(56.609 8.753)">
      <path id="Path_10091" data-name="Path 10091" d="M3759.719,731.342c-.543-.049-.657-.148-.657-.791v-9.319c0-.035.005-.072.009-.106.066-.576.231-.675.742-.972h-2.356l-1.235.593h1.259v10.167c0,.329-.065.379-.445.872h2.915l.61-.361C3760.279,731.391,3760,731.375,3759.719,731.342Zm6.7.151c-.179.1-.359.213-.539.294a3.811,3.811,0,0,1-1.588.311,3.494,3.494,0,0,1-2.175-.638,4.232,4.232,0,0,1-1.667-3.451,3.706,3.706,0,0,1,3.744-3.777,3.178,3.178,0,0,1,1.685.458,2.708,2.708,0,0,1,1.143,1.618l-3.842,1.554-1.259.1c.408,2.077,1.814,3.286,3.368,3.286a4.225,4.225,0,0,0,1.995-.571Zm-1.537-4.874c.31-.114.474-.212.474-.441a1.622,1.622,0,0,0-1.619-1.406,2.014,2.014,0,0,0-1.88,2.273c0,.278.033.572.05.868Zm3.115-2.275v1.079h-.131v-1.079h-.357v-.112h.845v.112Zm1.471,1.079v-1.089h-.006l-.333,1.089h-.1l-.335-1.089h0v1.089h-.119v-1.191h.2l.3.963h0l.3-.963h.207v1.191Z" transform="translate(-3718.717 -713.908)" fill="#f9f9f9"/>
      <g id="Group_11988" data-name="Group 11988">
        <path id="Path_10090" data-name="Path 10090" d="M1923.23,750.422a3.4,3.4,0,0,1-1.4-.283,2.637,2.637,0,0,1-1.063-.869h-.086a10.54,10.54,0,0,1,.086,1.3V753.8h-1.187V742.436h.966l.164,1.073h.057a2.764,2.764,0,0,1,1.066-.93,3.241,3.241,0,0,1,1.4-.286,2.9,2.9,0,0,1,2.408,1.066,5.679,5.679,0,0,1-.014,5.993A2.9,2.9,0,0,1,1923.23,750.422Zm-.172-7.12a2.105,2.105,0,0,0-1.739.666,3.426,3.426,0,0,0-.551,2.118v.264a3.924,3.924,0,0,0,.551,2.366,2.1,2.1,0,0,0,1.767.712,1.839,1.839,0,0,0,1.593-.823,3.9,3.9,0,0,0,.576-2.269,3.758,3.758,0,0,0-.576-2.25A1.9,1.9,0,0,0,1923.058,743.3Zm6.178,6.977h-1.188V739.144h1.188Zm6.83,0-.236-1.116h-.057a3.291,3.291,0,0,1-1.17,1,3.559,3.559,0,0,1-1.456.261,2.621,2.621,0,0,1-1.829-.6,2.19,2.19,0,0,1-.662-1.71q0-2.375,3.8-2.49l1.332-.043v-.487a1.986,1.986,0,0,0-.4-1.363,1.632,1.632,0,0,0-1.27-.44,5.176,5.176,0,0,0-2.219.6l-.365-.909a5.581,5.581,0,0,1,1.271-.494,5.5,5.5,0,0,1,1.385-.179,2.989,2.989,0,0,1,2.079.622,2.6,2.6,0,0,1,.676,2v5.352h-.88Zm-2.684-.837a2.412,2.412,0,0,0,1.742-.608,2.252,2.252,0,0,0,.634-1.7v-.708l-1.188.05a4.319,4.319,0,0,0-2.043.441,1.327,1.327,0,0,0-.626,1.213,1.221,1.221,0,0,0,.39.98A1.617,1.617,0,0,0,1933.383,749.442Zm4.253-7.006h1.273l1.718,4.473a17.128,17.128,0,0,1,.7,2.212h.057q.093-.366.39-1.249t1.943-5.435h1.274l-3.371,8.931a4.456,4.456,0,0,1-1.17,1.879,2.488,2.488,0,0,1-1.642.554,4.8,4.8,0,0,1-1.074-.121v-.952a4.15,4.15,0,0,0,.88.086,1.815,1.815,0,0,0,1.746-1.374l.436-1.116Zm-36.411.729a2.672,2.672,0,0,1-.214,4.544,1.154,1.154,0,0,0-.459.8.9.9,0,0,0,.427.7l.591.458a2.856,2.856,0,0,1,1.377,2.3c0,1.542-1.493,3.1-4.314,3.1-2.379,0-3.527-1.132-3.527-2.346a2.36,2.36,0,0,1,1.263-2,7.072,7.072,0,0,1,3.133-.755,1.717,1.717,0,0,1-.492-1.114,1.481,1.481,0,0,1,.164-.641c-.181.017-.361.033-.526.033a2.593,2.593,0,0,1-2.722-2.575,2.951,2.951,0,0,1,1.049-2.2,4.474,4.474,0,0,1,2.938-.9h3.378l-1.05.591h-1.017Zm-1.165,7.284a2.544,2.544,0,0,0-.377-.017,6.566,6.566,0,0,0-1.723.264,1.842,1.842,0,0,0-1.411,1.689c0,1.164,1.132,2,2.888,2,1.574,0,2.412-.756,2.412-1.772C1901.849,751.776,1901.307,751.335,1900.06,750.449Zm.476-3.117a1.658,1.658,0,0,0,.409-1.2c0-1.181-.7-3.018-2.066-3.018a1.532,1.532,0,0,0-1.148.542,1.9,1.9,0,0,0-.362,1.214c0,1.1.64,2.92,2.052,2.92A1.679,1.679,0,0,0,1900.536,747.332Zm-9.638,2.855a3.865,3.865,0,0,1-4-3.866,4.058,4.058,0,0,1,4.242-3.979,3.829,3.829,0,0,1,3.913,3.865A4,4,0,0,1,1890.9,750.186Zm2.047-1.327a2.964,2.964,0,0,0,.492-1.819c0-1.442-.687-4.193-2.719-4.193a2.28,2.28,0,0,0-1.474.558,2.477,2.477,0,0,0-.754,2c0,1.62.8,4.289,2.785,4.289A2.093,2.093,0,0,0,1892.945,748.86Zm-10.924,1.327a3.865,3.865,0,0,1-4-3.866,4.058,4.058,0,0,1,4.242-3.979,3.829,3.829,0,0,1,3.914,3.865A4,4,0,0,1,1882.021,750.186Zm2.047-1.327a2.967,2.967,0,0,0,.492-1.819c0-1.442-.688-4.193-2.719-4.193a2.28,2.28,0,0,0-1.474.558,2.477,2.477,0,0,0-.753,2c0,1.62.8,4.289,2.784,4.289A2.094,2.094,0,0,0,1884.068,748.86Zm-7.295,1.07-2.355.543a17.446,17.446,0,0,1-2.716.279,5.851,5.851,0,0,1-6.274-5.961c0-3.194,2.453-6.157,6.653-6.157a9.486,9.486,0,0,1,2.519.346,6.425,6.425,0,0,1,2.174,1.021l-1.367,1.3-.576.131.412-.659a4.707,4.707,0,0,0-3.524-1.547,4.548,4.548,0,0,0-4.562,4.858,5.823,5.823,0,0,0,5.829,6.009,4.9,4.9,0,0,0,2.091-.412v-2.65l-2.486.132,1.317-.709h3.491l-.428.412a.384.384,0,0,0-.165.263c-.017.148-.032.626-.032.791v2.01Z" transform="translate(-1865.428 -732.022)" fill="#f9f9f9"/>
        <path id="Path_10092" data-name="Path 10092" d="M1870.086,408.7h-.818a5.4,5.4,0,0,0-.233-.956h-1.181a4.938,4.938,0,0,0-.24.956h-.77q0-.1.6-1.636a12.857,12.857,0,0,0,.6-1.693H1869a14.062,14.062,0,0,0,.541,1.668A14.681,14.681,0,0,1,1870.086,408.7Zm-1.181-1.445a14.379,14.379,0,0,1-.437-1.427h-.041q0,.1-.453,1.427Zm4.479,1.445h-.632a6.235,6.235,0,0,0-.7-1.107,6.1,6.1,0,0,1-.839-1.444h-.041a9,9,0,0,1,.064,1.012q0,.632.036,1.539h-.629q.038-.793.038-1.741,0-.933-.038-1.588h.759a4.807,4.807,0,0,0,.631,1.082,6.343,6.343,0,0,1,.772,1.363h.039a9.631,9.631,0,0,1-.062-1.023q0-.693-.036-1.422h.639q-.036.634-.036,1.588T1873.384,408.7Zm3.706-1.78a1.887,1.887,0,0,1-.465,1.268,1.626,1.626,0,0,1-1.3.542q-.379,0-1.043-.031.033-.772.033-1.741,0-.93-.033-1.588h.448q.11,0,.327-.008c.145,0,.239-.008.284-.008a1.724,1.724,0,0,1,1.339.46A1.591,1.591,0,0,1,1877.089,406.923Zm-.7.11a1.232,1.232,0,0,0-.286-.827,1.086,1.086,0,0,0-.875-.336,2.661,2.661,0,0,0-.3.023q.025.512.026,1.069,0,.611.026,1.212a1.691,1.691,0,0,0,.332.033.966.966,0,0,0,.814-.342A1.318,1.318,0,0,0,1876.391,407.033Zm4.115,1.67h-.757a5.012,5.012,0,0,0-.455-1.117.6.6,0,0,0-.511-.212l-.284,0q0,.657.023,1.327h-.711q.033-.772.033-1.741,0-.93-.033-1.588h.442q.077,0,.321-.008t.451-.008q1.174,0,1.174.8a.9.9,0,0,1-.67.887v.038a.8.8,0,0,1,.453.4A8.95,8.95,0,0,1,1880.507,408.7Zm-.959-2.352q0-.509-.654-.509a2.249,2.249,0,0,0-.425.036q.028.4.028,1.033c.094,0,.173.005.238.005Q1879.548,406.915,1879.548,406.35Zm4.624.626a1.836,1.836,0,0,1-.481,1.3,1.56,1.56,0,0,1-1.189.516,1.5,1.5,0,0,1-1.13-.474,1.67,1.67,0,0,1-.455-1.205,1.835,1.835,0,0,1,.481-1.3,1.559,1.559,0,0,1,1.189-.517,1.5,1.5,0,0,1,1.13.473A1.669,1.669,0,0,1,1884.172,406.977Zm-.705.074a1.321,1.321,0,0,0-.274-.867.843.843,0,0,0-.675-.332.78.78,0,0,0-.634.335,1.337,1.337,0,0,0-.261.846,1.317,1.317,0,0,0,.275.865.842.842,0,0,0,.674.334.779.779,0,0,0,.634-.336A1.337,1.337,0,0,0,1883.466,407.051Zm2.151,1.652h-.724q.033-.793.033-1.741,0-.933-.033-1.588h.724q-.033.644-.033,1.588Q1885.584,407.925,1885.617,408.7Zm3.706-1.78a1.886,1.886,0,0,1-.465,1.268,1.626,1.626,0,0,1-1.3.542q-.378,0-1.043-.031.033-.772.033-1.741,0-.93-.033-1.588h.447q.11,0,.327-.008t.284-.008a1.724,1.724,0,0,1,1.339.46A1.59,1.59,0,0,1,1889.323,406.923Zm-.7.11a1.232,1.232,0,0,0-.286-.827,1.086,1.086,0,0,0-.875-.336,2.653,2.653,0,0,0-.3.023q.025.512.025,1.069,0,.611.026,1.212a1.693,1.693,0,0,0,.332.033.966.966,0,0,0,.814-.342A1.318,1.318,0,0,0,1888.625,407.033Zm5.614,1.67h-.818a5.391,5.391,0,0,0-.233-.956h-1.181a4.938,4.938,0,0,0-.24.956H1891q0-.1.6-1.636a12.857,12.857,0,0,0,.6-1.693h.967a14.172,14.172,0,0,0,.541,1.668A14.723,14.723,0,0,1,1894.24,408.7Zm-1.181-1.445a14.45,14.45,0,0,1-.437-1.427h-.041q0,.1-.452,1.427Zm4.164-1.013a1,1,0,0,1-.454.9,2.02,2.02,0,0,1-1.114.292c-.08,0-.137,0-.171-.005q0,.481.028,1.268h-.719q.033-.739.033-1.741,0-.92-.033-1.588h.445c.063,0,.184,0,.363-.008s.334-.008.465-.008a1.463,1.463,0,0,1,.821.22A.744.744,0,0,1,1897.222,406.245Zm-.659.141q0-.547-.726-.547a2.067,2.067,0,0,0-.384.038q.028.483.028,1.094c.043,0,.092.005.148.005Q1896.563,406.977,1896.563,406.386Zm3.726-.141a1,1,0,0,1-.454.9,2.02,2.02,0,0,1-1.114.292c-.08,0-.137,0-.172-.005q0,.481.028,1.268h-.719q.033-.739.033-1.741,0-.92-.033-1.588h.445q.095,0,.363-.008t.465-.008a1.464,1.464,0,0,1,.821.22A.744.744,0,0,1,1900.289,406.245Zm-.66.141q0-.547-.726-.547a2.067,2.067,0,0,0-.384.038q.028.483.028,1.094c.043,0,.092.005.148.005Q1899.629,406.977,1899.629,406.386Zm5.673.591a1.835,1.835,0,0,1-.481,1.3,1.56,1.56,0,0,1-1.189.516,1.5,1.5,0,0,1-1.13-.474,1.671,1.671,0,0,1-.455-1.205,1.835,1.835,0,0,1,.481-1.3,1.559,1.559,0,0,1,1.189-.517,1.5,1.5,0,0,1,1.13.473A1.67,1.67,0,0,1,1905.3,406.977Zm-.706.074a1.321,1.321,0,0,0-.273-.867.842.842,0,0,0-.675-.332.78.78,0,0,0-.634.335,1.337,1.337,0,0,0-.261.846,1.316,1.316,0,0,0,.275.865.841.841,0,0,0,.673.334.779.779,0,0,0,.634-.336A1.336,1.336,0,0,0,1904.6,407.051Zm4.171,1.652h-.631a6.232,6.232,0,0,0-.7-1.107,6.1,6.1,0,0,1-.839-1.444h-.041a9.009,9.009,0,0,1,.064,1.012q0,.632.036,1.539h-.629q.038-.793.038-1.741,0-.933-.038-1.588h.759a4.813,4.813,0,0,0,.631,1.082,6.338,6.338,0,0,1,.772,1.363h.038a9.66,9.66,0,0,1-.061-1.023q0-.693-.036-1.422h.639q-.036.634-.036,1.588T1908.768,408.7Z" transform="translate(-1866.815 -405.297)" fill="#f9f9fa"/>
      </g>
    </g>
  </g>
</svg>
