<svg xmlns="http://www.w3.org/2000/svg" width="64" height="64" viewBox="0 0 64 64">
  <g id="Group_11905" data-name="Group 11905" transform="translate(0 0.263)">
    <g id="Rectangle_1563" data-name="Rectangle 1563" transform="translate(0 -0.263)" stroke="#fff" stroke-width="1">
      <rect width="64" height="64" rx="14" stroke="none"/>
      <rect x="0.5" y="0.5" width="63" height="63" rx="13.5" fill="none"/>
    </g>
    <g id="Group_11904" data-name="Group 11904" transform="translate(13.591 15.348)">
      <path id="Path_18" data-name="Path 18" d="M245.711,354.086a1.611,1.611,0,0,0-1.3-1.081h0c-.63,0-1.282.991-1.282.991l-6.754,10.2,3.662,7.66a1.739,1.739,0,0,0,1.629.988l10.172-.354a1.738,1.738,0,0,0,1.508-2.487l-4.019-8.41c-.107-.182-.21-.368-.3-.564Z" transform="translate(-230.853 -340.071)" fill="#fff"/>
      <path id="Path_19" data-name="Path 19" d="M232.245,328.566l-2.375-4.97a1.739,1.739,0,0,0-2.883-.389l-6.664,7.694a1.739,1.739,0,0,0-.254,1.888l3.163,6.617,5.153-7.773a5.881,5.881,0,0,1,3.861-3.067" transform="translate(-219.898 -319.861)" fill="#fff"/>
      <path id="Path_20" data-name="Path 20" d="M301.8,351.213l-4.485,8.771a6,6,0,0,1-3.989,3.29l2.193,4.65a1.737,1.737,0,0,0,2.879.4l6.707-7.658a1.741,1.741,0,0,0,.264-1.887Z" transform="translate(-268.721 -338.88)" fill="#fff"/>
      <path id="Path_21" data-name="Path 21" d="M271.584,334.576a1.573,1.573,0,0,0,1.3-1.031l6.027-11.786-3-6.353a1.739,1.739,0,0,0-1.624-1l-10.174.3a1.738,1.738,0,0,0-1.522,2.479l7.686,16.307a1.6,1.6,0,0,0,1.3,1.081" transform="translate(-248.173 -314.409)" fill="#fff"/>
      <path id="Path_43" data-name="Path 43" d="M245.711,354.086a1.611,1.611,0,0,0-1.3-1.081h0c-.63,0-1.282.991-1.282.991l-6.754,10.2,3.662,7.66a1.739,1.739,0,0,0,1.629.988l10.172-.354a1.738,1.738,0,0,0,1.508-2.487l-4.019-8.41c-.107-.182-.21-.368-.3-.564Z" transform="translate(-230.853 -340.071)" fill="#fff"/>
      <path id="Path_44" data-name="Path 44" d="M232.245,328.566l-2.375-4.97a1.739,1.739,0,0,0-2.883-.389l-6.664,7.694a1.739,1.739,0,0,0-.254,1.888l3.163,6.617,5.153-7.773a5.881,5.881,0,0,1,3.861-3.067" transform="translate(-219.898 -319.861)" fill="#fff"/>
      <path id="Path_45" data-name="Path 45" d="M301.8,351.213l-4.485,8.771a6,6,0,0,1-3.989,3.29l2.193,4.65a1.737,1.737,0,0,0,2.879.4l6.707-7.658a1.741,1.741,0,0,0,.264-1.887Z" transform="translate(-268.72 -338.88)" fill="#fff"/>
      <path id="Path_46" data-name="Path 46" d="M271.584,334.576a1.573,1.573,0,0,0,1.3-1.031l6.027-11.786-3-6.353a1.739,1.739,0,0,0-1.624-1l-10.174.3a1.738,1.738,0,0,0-1.522,2.479l7.686,16.307a1.6,1.6,0,0,0,1.3,1.081" transform="translate(-248.173 -314.409)" fill="#fff"/>
    </g>
  </g>
</svg>
