<svg xmlns="http://www.w3.org/2000/svg" width="25.921" height="25.921" viewBox="0 0 25.921 25.921">
  <path id="linkedin-rect" d="M5.086.009A5.1,5.1,0,0,0,.007,5.089V20.851a5.094,5.094,0,0,0,5.08,5.078H20.849a5.093,5.093,0,0,0,5.078-5.078V5.089A5.1,5.1,0,0,0,20.849.009ZM6.364,4.286a2.041,2.041,0,1,1-.026,4.069H6.313a2.04,2.04,0,1,1,.051-4.069Zm11.542,5.4c2.576,0,4.506,1.683,4.506,5.3v6.754H18.5v-6.3c0-1.583-.566-2.664-1.983-2.664a2.144,2.144,0,0,0-2.009,1.431,2.673,2.673,0,0,0-.129.955v6.578H10.462s.051-10.674,0-11.779h3.915v1.668a3.886,3.886,0,0,1,3.528-1.944ZM4.381,9.966H8.3V21.744H4.381V9.966Z" transform="translate(-0.007 -0.009)"/>
</svg>
