<svg xmlns="http://www.w3.org/2000/svg" width="128.671" height="22.802" viewBox="0 0 128.671 22.802">
  <g id="Group_12580" data-name="Group 12580" transform="translate(0 1.651)">
    <g id="Group_11673" data-name="Group 11673" transform="translate(31.772 -0.145)">
      <path id="Path_10" data-name="Path 10" d="M228.649,443.82a4.261,4.261,0,0,1,1.786,1.774,5.854,5.854,0,0,1,.643,2.84v7.209h-2.507v-6.833a3.552,3.552,0,0,0-.821-2.518,2.922,2.922,0,0,0-2.24-.875,2.956,2.956,0,0,0-2.251.875,3.521,3.521,0,0,0-.833,2.518v6.833H219.9V443.421h2.529v1.4a4.175,4.175,0,0,1,1.586-1.177,5.077,5.077,0,0,1,2.052-.421,5.485,5.485,0,0,1,2.585.6" transform="translate(-219.898 -440.382)" fill="#0b0b0b"/>
      <path id="Path_11" data-name="Path 11" d="M254.082,447.324a3.651,3.651,0,0,0-1.364-1.419,3.568,3.568,0,0,0-1.819-.488,3.587,3.587,0,0,0-3.183,1.874,4.375,4.375,0,0,0-.521,2.186,4.56,4.56,0,0,0,.521,2.219,3.7,3.7,0,0,0,1.376,1.454,3.531,3.531,0,0,0,1.808.5,3.568,3.568,0,0,0,1.819-.489,3.625,3.625,0,0,0,1.364-1.431,4.473,4.473,0,0,0,.522-2.207,4.412,4.412,0,0,0-.522-2.2m-8.717-1.109a5.584,5.584,0,0,1,5-2.995,5.326,5.326,0,0,1,2.517.566,5.1,5.1,0,0,1,1.72,1.408V443.42h2.551v12.223H254.6v-1.819a5.031,5.031,0,0,1-1.752,1.443,5.671,5.671,0,0,1-5.414-.234,5.74,5.74,0,0,1-2.074-2.262,6.954,6.954,0,0,1-.765-3.294,6.764,6.764,0,0,1,.765-3.261" transform="translate(-231.849 -440.38)" fill="#0b0b0b"/>
      <path id="Path_12" data-name="Path 12" d="M283,443.607V455.83h-2.529v-1.442a4.1,4.1,0,0,1-1.563,1.187,4.969,4.969,0,0,1-2.052.432,5.486,5.486,0,0,1-2.585-.6,4.32,4.32,0,0,1-1.8-1.775,5.746,5.746,0,0,1-.655-2.839v-7.188h2.506v6.811a3.545,3.545,0,0,0,.821,2.517,2.919,2.919,0,0,0,2.24.877,2.957,2.957,0,0,0,2.251-.877,3.514,3.514,0,0,0,.833-2.517v-6.811Z" transform="translate(-245.02 -440.568)" fill="#0b0b0b"/>
      <path id="Path_13" data-name="Path 13" d="M305.626,447.323a3.654,3.654,0,0,0-1.364-1.419,3.568,3.568,0,0,0-1.819-.488,3.637,3.637,0,0,0-1.818.478,3.6,3.6,0,0,0-1.365,1.4,4.368,4.368,0,0,0-.521,2.185,4.56,4.56,0,0,0,.521,2.218,3.681,3.681,0,0,0,1.376,1.454,3.58,3.58,0,0,0,3.627.01,3.637,3.637,0,0,0,1.364-1.43,4.5,4.5,0,0,0,.522-2.208,4.433,4.433,0,0,0-.522-2.2m-1.2-3.538a4.839,4.839,0,0,1,1.72,1.409v-1.775h2.55v12.423a6.234,6.234,0,0,1-.71,3.005,5.129,5.129,0,0,1-2.052,2.074,6.432,6.432,0,0,1-3.2.755,6.954,6.954,0,0,1-4.126-1.165,4.291,4.291,0,0,1-1.862-3.16h2.506a2.719,2.719,0,0,0,1.231,1.542,4.173,4.173,0,0,0,2.251.587,3.37,3.37,0,0,0,2.474-.931,3.641,3.641,0,0,0,.943-2.706V453.8a5.261,5.261,0,0,1-4.238,2.04,5.473,5.473,0,0,1-2.917-.809,5.717,5.717,0,0,1-2.084-2.264,6.949,6.949,0,0,1-.765-3.293,6.77,6.77,0,0,1,.765-3.262,5.579,5.579,0,0,1,5-2.995,5.429,5.429,0,0,1,2.518.566" transform="translate(-256.787 -440.38)" fill="#0b0b0b"/>
      <path id="Path_14" data-name="Path 14" d="M332.615,447.323a3.658,3.658,0,0,0-1.364-1.419,3.571,3.571,0,0,0-1.82-.488,3.638,3.638,0,0,0-1.818.478,3.6,3.6,0,0,0-1.365,1.4,4.361,4.361,0,0,0-.521,2.185,4.553,4.553,0,0,0,.521,2.218,3.679,3.679,0,0,0,1.375,1.454,3.581,3.581,0,0,0,3.628.01,3.641,3.641,0,0,0,1.364-1.43,4.5,4.5,0,0,0,.522-2.208,4.438,4.438,0,0,0-.522-2.2m-1.2-3.538a4.842,4.842,0,0,1,1.72,1.409v-1.775h2.55v12.423a6.24,6.24,0,0,1-.71,3.005,5.13,5.13,0,0,1-2.052,2.074,6.434,6.434,0,0,1-3.206.755,6.953,6.953,0,0,1-4.126-1.165,4.29,4.29,0,0,1-1.862-3.16h2.507a2.715,2.715,0,0,0,1.231,1.542,4.171,4.171,0,0,0,2.25.587,3.371,3.371,0,0,0,2.475-.931,3.641,3.641,0,0,0,.943-2.706V453.8a5.262,5.262,0,0,1-4.238,2.04,5.471,5.471,0,0,1-2.917-.809,5.717,5.717,0,0,1-2.084-2.264,6.949,6.949,0,0,1-.765-3.293,6.77,6.77,0,0,1,.765-3.262,5.579,5.579,0,0,1,5-2.995,5.431,5.431,0,0,1,2.518.566" transform="translate(-269.845 -440.38)" fill="#0b0b0b"/>
      <path id="Path_15" data-name="Path 15" d="M359.526,448.434a2.877,2.877,0,0,0-1-2.241,3.569,3.569,0,0,0-2.418-.843,3.247,3.247,0,0,0-2.24.832,3.48,3.48,0,0,0-1.109,2.252Zm2.551,2.04h-9.34a3.39,3.39,0,0,0,1.087,2.351,3.425,3.425,0,0,0,2.4.889,2.957,2.957,0,0,0,2.883-1.708h2.729a5.5,5.5,0,0,1-2.008,2.761,5.882,5.882,0,0,1-3.6,1.075,6.245,6.245,0,0,1-3.139-.787,5.618,5.618,0,0,1-2.174-2.219,6.764,6.764,0,0,1-.787-3.315,6.928,6.928,0,0,1,.765-3.318A5.382,5.382,0,0,1,353.037,444a6.4,6.4,0,0,1,3.183-.777,6.219,6.219,0,0,1,3.083.755,5.322,5.322,0,0,1,2.108,2.118,6.384,6.384,0,0,1,.753,3.137,7.938,7.938,0,0,1-.088,1.243" transform="translate(-282.902 -440.382)" fill="#0b0b0b"/>
      <path id="Path_16" data-name="Path 16" d="M378.093,442.823v6.765a1.3,1.3,0,0,0,.322.987,1.594,1.594,0,0,0,1.1.3h1.554v2.108h-2a3.846,3.846,0,0,1-2.619-.8,3.293,3.293,0,0,1-.909-2.6v-6.765H374.1V440.76h1.442v-3.039h2.55v3.039h2.973v2.062Z" transform="translate(-294.505 -437.721)" fill="#0b0b0b"/>
      <path id="Path_17" data-name="Path 17" d="M391.186,455.322a4.538,4.538,0,0,1-1.808-1.42,3.53,3.53,0,0,1-.711-2.008h2.619a1.779,1.779,0,0,0,.743,1.3,2.7,2.7,0,0,0,1.7.522,2.856,2.856,0,0,0,1.652-.41,1.242,1.242,0,0,0,.588-1.055,1.083,1.083,0,0,0-.654-1.019,12.334,12.334,0,0,0-2.074-.732,19.853,19.853,0,0,1-2.241-.732,3.919,3.919,0,0,1-1.5-1.086,2.848,2.848,0,0,1-.632-1.93,3.011,3.011,0,0,1,.576-1.786,3.833,3.833,0,0,1,1.653-1.275,6.15,6.15,0,0,1,2.473-.466,5.115,5.115,0,0,1,3.361,1.053,3.786,3.786,0,0,1,1.363,2.873h-2.529a1.8,1.8,0,0,0-.665-1.309,2.492,2.492,0,0,0-1.619-.487,2.632,2.632,0,0,0-1.531.377,1.168,1.168,0,0,0-.533,1,1.076,1.076,0,0,0,.356.821,2.483,2.483,0,0,0,.865.522c.34.125.843.286,1.508.477a16.536,16.536,0,0,1,2.186.721,4.069,4.069,0,0,1,1.474,1.077,2.838,2.838,0,0,1,.644,1.885,3.164,3.164,0,0,1-.577,1.863,3.824,3.824,0,0,1-1.631,1.287,6.078,6.078,0,0,1-2.473.465,6.165,6.165,0,0,1-2.585-.52" transform="translate(-301.552 -440.382)" fill="#0b0b0b"/>
    </g>
    <g id="Group_11672" data-name="Group 11672" transform="translate(0 -1.651)">
      <path id="Path_18" data-name="Path 18" d="M242.441,353.708a1.047,1.047,0,0,0-.843-.7h0c-.41,0-.833.644-.833.644l-4.388,6.629,2.379,4.977a1.13,1.13,0,0,0,1.059.642l6.609-.23a1.129,1.129,0,0,0,.98-1.616l-2.611-5.464c-.07-.118-.137-.239-.2-.366Z" transform="translate(-232.787 -344.601)" fill="#0b0b0b"/>
      <path id="Path_19" data-name="Path 19" d="M227.92,326.478l-1.543-3.229A1.13,1.13,0,0,0,224.5,323l-4.33,5a1.13,1.13,0,0,0-.165,1.227l2.055,4.3,3.348-5.05a3.821,3.821,0,0,1,2.509-1.993" transform="translate(-219.898 -320.823)" fill="#0b0b0b"/>
      <path id="Path_20" data-name="Path 20" d="M298.836,351.213l-2.914,5.7a3.9,3.9,0,0,1-2.592,2.138l1.425,3.021a1.129,1.129,0,0,0,1.871.263l4.357-4.976a1.131,1.131,0,0,0,.172-1.226Z" transform="translate(-277.341 -343.2)" fill="#0b0b0b"/>
      <path id="Path_21" data-name="Path 21" d="M268.376,327.512a1.022,1.022,0,0,0,.843-.67l3.916-7.657-1.946-4.128a1.13,1.13,0,0,0-1.055-.648l-6.61.194a1.13,1.13,0,0,0-.989,1.611l4.994,10.595a1.042,1.042,0,0,0,.848.7" transform="translate(-253.165 -314.409)" fill="#0b0b0b"/>
      <path id="Path_43" data-name="Path 43" d="M242.441,353.708a1.047,1.047,0,0,0-.843-.7h0c-.41,0-.833.644-.833.644l-4.388,6.629,2.379,4.977a1.13,1.13,0,0,0,1.059.642l6.609-.23a1.129,1.129,0,0,0,.98-1.616l-2.611-5.464c-.07-.118-.137-.239-.2-.366Z" transform="translate(-232.787 -344.601)" fill="#0b0b0b"/>
      <path id="Path_44" data-name="Path 44" d="M227.92,326.478l-1.543-3.229A1.13,1.13,0,0,0,224.5,323l-4.33,5a1.13,1.13,0,0,0-.165,1.227l2.055,4.3,3.348-5.05a3.821,3.821,0,0,1,2.509-1.993" transform="translate(-219.898 -320.823)" fill="#0b0b0b"/>
      <path id="Path_45" data-name="Path 45" d="M298.836,351.213l-2.914,5.7a3.9,3.9,0,0,1-2.592,2.138l1.425,3.021a1.129,1.129,0,0,0,1.871.263l4.357-4.976a1.131,1.131,0,0,0,.172-1.226Z" transform="translate(-277.341 -343.2)" fill="#0b0b0b"/>
      <path id="Path_46" data-name="Path 46" d="M268.376,327.512a1.022,1.022,0,0,0,.843-.67l3.916-7.657-1.946-4.128a1.13,1.13,0,0,0-1.055-.648l-6.61.194a1.13,1.13,0,0,0-.989,1.611l4.994,10.595a1.042,1.042,0,0,0,.848.7" transform="translate(-253.165 -314.409)" fill="#0b0b0b"/>
    </g>
  </g>
</svg>
