<svg xmlns="http://www.w3.org/2000/svg" width="31.104" height="25.92" viewBox="0 0 31.104 25.92">
  <path id="twitter" d="M31.1,6.033A8.359,8.359,0,0,1,29.943,7.7a8.573,8.573,0,0,1-2.1,1.769q.035.277.052.52a18.873,18.873,0,0,1-1.335,7.23,19.038,19.038,0,0,1-7.576,9.414A19.921,19.921,0,0,1,7.126,28.8,13.617,13.617,0,0,1,0,26.04,13.278,13.278,0,0,0,9.5,23.3c-2.915.073-5.034-2.035-6.033-4.473A4.057,4.057,0,0,0,4.82,18.9a12.581,12.581,0,0,0,1.526-.208,7.153,7.153,0,0,1-4.335-3.364,7.251,7.251,0,0,1-.728-3.19A6.092,6.092,0,0,0,4.161,13,7.436,7.436,0,0,1,1.335,8.407a8.508,8.508,0,0,1,.78-4.144,21.793,21.793,0,0,0,7.4,5.548,15.336,15.336,0,0,0,5.808,1.214,7.762,7.762,0,0,1,.78-4.924,6.708,6.708,0,0,1,4-2.913,5.911,5.911,0,0,1,5.93,1.838A10.554,10.554,0,0,0,30.167,3.5a6.261,6.261,0,0,1-2.843,3.675A18.03,18.03,0,0,0,31.1,6.032Z" transform="translate(0 -2.999)" fill="#0b0b0b"/>
</svg>
